{
	"asset":{
		"generator":"Khronos glTF Blender I/O v4.5.47",
		"version":"2.0"
	},
	"scene":0,
	"scenes":[
		{
			"name":"Scene",
			"nodes":[
				1
			]
		}
	],
	"nodes":[
		{
			"mesh":0,
			"name":"Resource_PineTree_Group",
			"rotation":[
				-0.70710688829422,
				0,
				0,
				0.7071066498756409
			],
			"scale":[
				100,
				99.99998474121094,
				99.99998474121094
			]
		},
		{
			"children":[
				0
			],
			"name":"RootNode"
		}
	],
	"materials":[
		{
			"name":"Wood",
			"pbrMetallicRoughness":{
				"baseColorFactor":[
					0.24618732929229736,
					0.14435896277427673,
					0.053798429667949677,
					1
				],
				"metallicFactor":0.4000000059604645,
				"roughnessFactor":0.27216553688049316
			}
		},
		{
			"name":"Green",
			"pbrMetallicRoughness":{
				"baseColorFactor":[
					0.09404914081096649,
					0.1788560301065445,
					0.012008205987513065,
					1
				],
				"metallicFactor":0.4000000059604645,
				"roughnessFactor":0.27216553688049316
			}
		}
	],
	"meshes":[
		{
			"name":"Resource_PineTree_Group-0",
			"primitives":[
				{
					"attributes":{
						"POSITION":0,
						"NORMAL":1
					},
					"indices":2,
					"material":0
				},
				{
					"attributes":{
						"POSITION":3,
						"NORMAL":4
					},
					"indices":5,
					"material":1
				}
			]
		}
	],
	"accessors":[
		{
			"bufferView":0,
			"componentType":5126,
			"count":144,
			"max":[
				0.0003173187142238021,
				3.8484660763060674e-05,
				0.00044990796595811844
			],
			"min":[
				-0.00026609524502418935,
				-0.004241356626152992,
				-0.00023404881358146667
			],
			"type":"VEC3"
		},
		{
			"bufferView":1,
			"componentType":5126,
			"count":144,
			"type":"VEC3"
		},
		{
			"bufferView":2,
			"componentType":5123,
			"count":144,
			"type":"SCALAR"
		},
		{
			"bufferView":3,
			"componentType":5126,
			"count":891,
			"max":[
				0.0019947236869484186,
				-0.0008157836855389178,
				0.001965535804629326
			],
			"min":[
				-0.0019626887515187263,
				-0.007330491207540035,
				-0.0018567885272204876
			],
			"type":"VEC3"
		},
		{
			"bufferView":4,
			"componentType":5126,
			"count":891,
			"type":"VEC3"
		},
		{
			"bufferView":5,
			"componentType":5123,
			"count":891,
			"type":"SCALAR"
		}
	],
	"bufferViews":[
		{
			"buffer":0,
			"byteLength":1728,
			"byteOffset":0,
			"target":34962
		},
		{
			"buffer":0,
			"byteLength":1728,
			"byteOffset":1728,
			"target":34962
		},
		{
			"buffer":0,
			"byteLength":288,
			"byteOffset":3456,
			"target":34963
		},
		{
			"buffer":0,
			"byteLength":10692,
			"byteOffset":3744,
			"target":34962
		},
		{
			"buffer":0,
			"byteLength":10692,
			"byteOffset":14436,
			"target":34962
		},
		{
			"buffer":0,
			"byteLength":1782,
			"byteOffset":25128,
			"target":34963
		}
	],
	"buffers":[
		{
			"byteLength":26912,
			"uri":"tree.bin"
		}
	]
}
